<svg xmlns="http://www.w3.org/2000/svg" viewBox="0 0 800 560" width="800" height="560" role="img" aria-label="ent">
    <defs><linearGradient id="s-ear" x1="0" y1="0" x2="0" y2="1"><stop offset="0" stop-color="#FFFFFF"/><stop offset="1" stop-color="#0FA3A026"/></linearGradient></defs>
    <rect width="800" height="560" fill="url(#s-ear)"/>
    <rect width="800" height="560" fill="#0FA3A0" opacity=".07"/>
    
  <circle cx="688" cy="100.8" r="145.6" fill="#0FA3A0" opacity=".16"/>
  <circle cx="80" cy="470.4" r="112" fill="#F5A524" opacity=".14"/>
  <circle cx="576" cy="504" r="67.2" fill="#F5A524" opacity=".12"/>
    <circle cx="400" cy="280" r="190.4" fill="#FFFFFF" opacity=".72"/>
    <g transform="translate(400 280) scale(1.75)"><path d="M-6 -64 q46 0 46 44 q0 30 -24 44 q-16 10 -16 28 q0 14 -18 14 q-20 0 -20 -22 q0 -26 22 -40 q16 -10 16 -24 q0 -16 -16 -16 q-14 0 -16 14 q-2 12 -18 10 q-16 -2 -14 -20 q4 -32 58 -32 Z" fill="#0FA3A0"/></g>
    <rect x="0" y="550" width="800" height="10" fill="#0FA3A0" opacity=".55"/></svg>
